<svg width="24" height="24" viewBox="0 0 24 24" fill="none" xmlns="http://www.w3.org/2000/svg">
<path fill-rule="evenodd" clip-rule="evenodd" d="M11.372 0.18975C11.752 -0.06325 12.247 -0.06325 12.628 0.18975L23.492 7.39975C23.809 7.60975 24 7.96475 24 8.34575V15.6538C24 16.0338 23.81 16.3897 23.492 16.6007L12.628 23.8108C12.248 24.0628 11.753 24.0628 11.372 23.8108L0.508 16.5998C0.351885 16.4962 0.223807 16.3556 0.135174 16.1906C0.0465408 16.0255 0.000104234 15.8411 0 15.6538L0 8.34575C0 7.96575 0.19 7.60975 0.508 7.39875L11.372 0.18975ZM2.272 10.4628V13.5208L4.56 11.9808L2.272 10.4628V10.4628ZM6.609 13.3407L3.18 15.6477L10.864 20.7477V16.1648L6.61 13.3407H6.609ZM13.136 16.1648V20.7467L20.82 15.6468L17.39 13.3407L13.136 16.1648V16.1648ZM19.439 11.9818L21.729 13.5218V10.4618L19.439 11.9818V11.9818ZM20.81 8.34575L17.4 10.6088L13.136 7.74075V3.25275L20.81 8.34575ZM10.864 3.25275V7.73975L6.601 10.6077L3.19 8.34575L10.864 3.25275V3.25275ZM12 9.71475L8.65 11.9688L12 14.1918L15.35 11.9688L12 9.71475Z" fill="white"/>
</svg>
